<svg viewBox="0 0 128 128" xmlns="http://www.w3.org/2000/svg"><g data-name="12 Bills"><path d="M96.83 14.4A3 3 0 0 0 94 16.48a7 7 0 0 1-13.37 0 3 3 0 0 0-2.85-2.08h-2.95A3 3 0 0 0 72 16.48a7 7 0 0 1-13.37 0 3 3 0 0 0-2.85-2.08h-2.95A3 3 0 0 0 50 16.48a7 7 0 0 1-13.37 0 3 3 0 0 0-2.85-2.08H32.3a3 3 0 0 0-3 3v90a3 3 0 0 0 3 3h1.47a3 3 0 0 0 2.85-2.08 7 7 0 0 1 13.37 0 3 3 0 0 0 2.85 2.08h2.93a3 3 0 0 0 2.85-2.08 7 7 0 0 1 13.37 0 3 3 0 0 0 2.85 2.08h2.93a3 3 0 0 0 2.85-2.08 7 7 0 0 1 13.37 0 3 3 0 0 0 2.85 2.08h1.46a3 3 0 0 0 3-3v-90a3 3 0 0 0-3-3Z" fill="#f2f2f2" class="fill-f2f2f2"></path><path d="M53.17 18.6a2 2 0 0 1 1.89 1.4 8 8 0 0 0 15.28 0 2 2 0 0 1 1.89-1.38 1 1 0 0 0 0-2 4 4 0 0 0-3.8 2.78 6 6 0 0 1-11.46 0 4 4 0 0 0-3.8-2.78 1 1 0 0 0 0 1.98ZM94.24 16.6a4 4 0 0 0-3.8 2.78 6 6 0 0 1-11.46 0 4 4 0 0 0-3.8-2.78 1 1 0 0 0 0 2 2 2 0 0 1 1.88 1.4 8 8 0 0 0 15.28 0 2 2 0 0 1 1.89-1.38 1 1 0 0 0 .01-2.02ZM97.2 16.6a1 1 0 0 0 0 2 .5.5 0 0 1 .5.5v93a.5.5 0 0 1-.5.5 1 1 0 0 0 0 2 2.5 2.5 0 0 0 2.5-2.5v-93a2.5 2.5 0 0 0-2.5-2.5ZM94.24 112.6a2 2 0 0 1-1.89-1.38 8 8 0 0 0-15.28 0 2 2 0 0 1-1.89 1.38 1 1 0 0 0 0 2 4 4 0 0 0 3.8-2.78 6 6 0 0 1 11.46 0 4 4 0 0 0 3.8 2.78 1 1 0 0 0 0-2ZM72.24 112.6a2 2 0 0 1-1.89-1.38 8 8 0 0 0-15.28 0 2 2 0 0 1-1.89 1.38 1 1 0 0 0 0 2 4 4 0 0 0 3.8-2.78 6 6 0 0 1 11.46 0 4 4 0 0 0 3.8 2.78 1 1 0 0 0 0-2ZM50.24 112.6a2 2 0 0 1-1.89-1.38 8 8 0 0 0-15.28 0 2 2 0 0 1-1.89 1.38 1 1 0 0 0 0 2 4 4 0 0 0 3.8-2.78 6 6 0 0 1 11.46 0 4 4 0 0 0 3.8 2.78 1 1 0 0 0 0-2ZM28.2 18.6a1 1 0 0 0 0-2 2.5 2.5 0 0 0-2.5 2.5v93a2.5 2.5 0 0 0 2.5 2.5 1 1 0 0 0 0-2 .5.5 0 0 1-.5-.5v-93a.5.5 0 0 1 .5-.5ZM31.17 18.6a2 2 0 0 1 1.89 1.4 8 8 0 0 0 15.28 0 2 2 0 0 1 1.89-1.38 1 1 0 0 0 0-2 4 4 0 0 0-3.8 2.78 6 6 0 0 1-11.46 0 4 4 0 0 0-3.8-2.78 1 1 0 0 0 0 1.98ZM47.7 82.88a1 1 0 0 0 2 0 5 5 0 0 0-4-4.9v-.53a1 1 0 0 0-2 0V78a5 5 0 0 0 0 9.8v5.9a3 3 0 0 1-2-2.82 1 1 0 0 0-2 0 5 5 0 0 0 4 4.9v.53a1 1 0 0 0 2 0v-.53a5 5 0 0 0 0-9.8v-5.91a3 3 0 0 1 2 2.81Zm-4-2.82v5.64a3 3 0 0 1 0-5.63Zm2 13.63v-5.62a3 3 0 0 1 0 5.63ZM84.7 33.88h-44a1 1 0 0 0 0 2h44a1 1 0 0 0 0-2ZM84.7 49.88h-44a1 1 0 0 0 0 2h44a1 1 0 0 0 0-2ZM84.7 57.88h-44a1 1 0 0 0 0 2h44a1 1 0 0 0 0-2ZM84.7 81.88h-22a1 1 0 0 0 0 2h22a1 1 0 0 0 0-2ZM84.7 89.88h-22a1 1 0 0 0 0 2h22a1 1 0 0 0 0-2ZM84.7 65.88h-44a1 1 0 0 0 0 2h44a1 1 0 0 0 0-2ZM84.7 41.88h-44a1 1 0 0 0 0 2h44a1 1 0 0 0 0-2Z" fill="#d6401a" class="fill-a64d2c"></path></g></svg>