<svg viewBox="0 0 64 40" xml:space="preserve" xmlns="http://www.w3.org/2000/svg" enable-background="new 0 0 64 40"><path d="M22 0c-4 0-4 4-4 4v4h12c-2-4-6-8-8-8z" fill="#b53131" class="fill-cccccc"></path><path d="M46 24c-4 0-14-14-16-16s-4-4-6-4c0 0-2 0-4 2s-6 4-10 4H6c-2 0-4 0-4 2v4c0 2-2 5.994-2 12v6h58v-8c-10-2-12-2-12-2z" fill="#e6e6e6" class="fill-e6e6e6"></path><path d="M30 8c-2-2-4-4-6-4 0 0-2 0-4 2l6 6c1.414 1.414 0 2.001 2 4 2 2 4 0 6 2 4 4.001 6 8 12 8v-2c-4 0-14-14-16-16z" fill="#b84333" class="fill-d46557"></path><path d="M34 26c0-4-4-6-4-6s.189 4-2 4c-1.653 0-4.829-1.182-8.408-2.803C22.866 17.026 27.554 12.447 30 10c0 0 0-2-2-4s-4-2-4-2c-5.233 5.233-9.906 9.357-13.709 12.573C5.66 14.118 2 12 2 12v2s2.592 1.885 6.157 4.36C3.06 22.597 0 24.933 0 26v8h16v-6c0-.95.49-2.164 1.294-3.522C22.027 27.5 26.42 30 28 30c2 0 6 0 6-4zm24 0s-2 4.001-8 4.001c-2 0-2-2.001-2-4.001 0 0 0-2-2-2s-4 2-6 4-8 6-8 6h30v-3.999C62 26 58 26 58 26z" fill-rule="evenodd" clip-rule="evenodd" fill="#c44433" class="fill-ed7161"></path><path d="M62 30c-2 0-4.6 4-30 4-10 0-28-2-30-2s-2 0-2 2c0 4 0 6 7 6h25c6 0 32 0 32-8 0 0 0-2-2-2z" fill="#b53131" class="fill-cccccc"></path></svg>