<svg viewBox="0 0 60 60" xmlns="http://www.w3.org/2000/svg"><path d="M55 50a1 1 0 0 0 1-1V13a1 1 0 1 0-2 0v36a1 1 0 0 0 1 1Zm3 5v-1h-3a1 1 0 1 1 0-2h3V10h-3a1 1 0 1 1 0-2h2.382L55 3.236l-3 6V55c0 1.654 1.346 3 3 3s3-1.346 3-3Zm2.02-46c0 .068-.007.135-.02.2V55c0 2.757-2.243 5-5 5s-5-2.243-5-5V9c0-.155.036-.309.105-.447l4-8c.34-.678 1.45-.678 1.79 0l3.919 7.839A.997.997 0 0 1 60.02 9ZM31 30H21a1 1 0 1 0 0 2h10a1 1 0 1 0 0-2Zm-10-2h6a1 1 0 1 0 0-2h-6a1 1 0 1 0 0 2Zm-5 8h20V22H16v14Zm-2 1V21a1 1 0 0 1 1-1h22a1 1 0 0 1 1 1v16a1 1 0 0 1-1 1H15a1 1 0 0 1-1-1ZM2 9.087V55c0 1.598 1.402 3 3 3h38c1.598 0 3-1.402 3-3V10H5c-.823 0-1.997-.237-3-.913ZM47 2H4c-1.103 0-2 .897-2 2v1c0 2.823 2.504 2.994 3.006 3H47a1 1 0 0 1 1 1v46c0 2.71-2.29 5-5 5H5c-2.71 0-5-2.29-5-5V4c0-2.206 1.794-4 4-4h43a1 1 0 1 1 0 2ZM5 56a1 1 0 0 0 1-1V13a1 1 0 1 0-2 0v42a1 1 0 0 0 1 1ZM45 4a1 1 0 1 1 0 2H5a1 1 0 1 1 0-2h40Z" fill="#bd1717" fill-rule="evenodd" class="fill-000000"></path></svg>