<?xml version="1.0" ?><svg viewBox="0 0 256 256" xmlns="http://www.w3.org/2000/svg"><g><path d="m65.94 26.09c12-8.5 121.9-8.64 129.72 2.19s8.78 84.16-3.76 90.12-116 9.76-126-1-12.67-82.29.04-91.31z" fill="#191919"/><path d="m120.11 132.22c-51.38 0-57.62-6.74-60-9.35-10.49-11.27-11.93-53.62-9.81-74.17s7.3-26.51 11-29.13c10.64-7.55 57.13-7.75 71.12-7.63 61.69.53 67.52 8.62 69.72 11.67 5.08 7.05 6.7 24.95 7.16 38.71.61 18.32-.72 35.85-3.56 46.92-2.28 8.89-5.59 14.1-10.41 16.39-9.77 4.64-48.29 6.31-67.29 6.55q-4.13.04-7.93.04zm-48.47-20.45c3.83 2.13 22.08 5 58.26 4.37 30.55-.48 53.05-3.06 58.07-4.78 1.84-2.62 5.28-14.64 5.46-38.56.17-21.71-2.38-35.63-4-39.31-4.43-2.17-23.43-5.39-59.13-5.57-34.16-.16-55.59 2.67-59.7 4.7-2 2.23-5.66 14.38-5.14 39.23.48 22.89 4.16 36.94 6.18 39.92z" fill="#191919"/></g><g><path d="m65.94 26.09c12-8.5 121.9-8.64 129.72 2.19s8.78 84.16-3.76 90.12-116 9.76-126-1-12.67-82.29.04-91.31z" fill="#fff"/></g><g><path d="m115.6 46.56c-3.59 2.28-2.52 48.95-.44 51.7s41.31-22 41.34-26.44-37.32-27.54-40.9-25.26z" fill="#e83a2a"/></g><path d="m92.95 175.68c-5-.08-9.2 3.19-8.83 8.37.29 4 3 7.89 9.31 7.73a7.88 7.88 0 0 0 7.66-7.81c0-4.62-2.81-8.2-8.14-8.29z" fill="#e83a2a"/><path d="m65.5 175.68c-5-.08-9.2 3.19-8.83 8.37.29 4 3 7.89 9.31 7.73a7.88 7.88 0 0 0 7.67-7.78c0-4.65-2.81-8.23-8.15-8.32z" fill="#e83a2a"/><path d="m36.64 177.67c-5-.08-9.2 3.19-8.83 8.37.29 4 3 7.89 9.31 7.73a7.88 7.88 0 0 0 7.67-7.77c0-4.66-2.79-8.24-8.15-8.33z" fill="#e83a2a"/><path d="m98.87 157.93c-4.32-.07-7.88 2.73-7.56 7.17.25 3.41 2.57 6.76 8 6.62a6.75 6.75 0 0 0 6.56-6.69c-.03-3.96-2.43-7.03-7-7.1z" fill="#e83a2a"/><path d="m73.41 157.93c-4.32-.07-7.88 2.73-7.56 7.17.25 3.41 2.57 6.76 8 6.62a6.75 6.75 0 0 0 6.54-6.72c0-3.93-2.39-7-6.98-7.07z" fill="#e83a2a"/><path d="m49.53 157.93c-4.32-.07-7.88 2.73-7.56 7.17.25 3.41 2.57 6.76 8 6.62a6.75 6.75 0 0 0 6.54-6.72c0-3.93-2.41-7-6.98-7.07z" fill="#e83a2a"/><path d="m106.76 141.55c-3.36-.05-6.13 2.12-5.88 5.57.19 2.65 2 5.26 6.2 5.15a5.25 5.25 0 0 0 5.1-5.2 5.16 5.16 0 0 0 -5.42-5.52z" fill="#e83a2a"/><path d="m83.29 142.55c-3.36-.05-6.13 2.12-5.88 5.57.19 2.65 2 5.26 6.2 5.15a5.25 5.25 0 0 0 5.1-5.2 5.16 5.16 0 0 0 -5.42-5.52z" fill="#e83a2a"/><path d="m61.4 142.55c-3.36-.05-6.13 2.12-5.88 5.57.19 2.65 2 5.26 6.2 5.15a5.25 5.25 0 0 0 5.1-5.2 5.16 5.16 0 0 0 -5.42-5.52z" fill="#e83a2a"/><path d="m231.82 204c-2.65-7.36-23.68-7.55-28 0-4.47-7.66-24.71-7.32-32.32-.11-6.1-7.74-22-4.83-27.6 1-8.11-9.49-26.87-7.07-32.85-.42-4.6-6.78-22-8.82-28.48-.63-7.62-7.21-27.85-7.55-32.32.11-4.35-7.55-25.39-7.36-28 0-1.67 4.64 1.49 31.69 4.94 34.62 3.07 2.61 196.77 2.55 199.77 0 3.36-2.84 6.53-29.89 4.86-34.57z" fill="#e83a2a"/><path d="m162.67 175.68c5-.08 9.2 3.19 8.83 8.37-.29 4-3 7.89-9.31 7.73a7.88 7.88 0 0 1 -7.66-7.81c-.01-4.62 2.8-8.2 8.14-8.29z" fill="#e83a2a"/><path d="m190.11 175.68c5-.08 9.2 3.19 8.83 8.37-.29 4-3 7.89-9.31 7.73a7.88 7.88 0 0 1 -7.63-7.78c0-4.65 2.78-8.23 8.11-8.32z" fill="#e83a2a"/><path d="m219 177.67c5-.08 9.2 3.19 8.83 8.37-.29 4-3 7.89-9.31 7.73a7.88 7.88 0 0 1 -7.66-7.81c-.04-4.62 2.77-8.2 8.14-8.29z" fill="#e83a2a"/><path d="m156.75 157.93c4.32-.07 7.88 2.73 7.56 7.17-.25 3.41-2.57 6.76-8 6.62a6.75 6.75 0 0 1 -6.56-6.69c.02-3.96 2.43-7.03 7-7.1z" fill="#e83a2a"/><path d="m182.2 157.93c4.32-.07 7.88 2.73 7.56 7.17-.25 3.41-2.57 6.76-8 6.62a6.75 6.75 0 0 1 -6.56-6.69c.03-3.96 2.43-7.03 7-7.1z" fill="#e83a2a"/><path d="m206.09 157.93c4.32-.07 7.88 2.73 7.56 7.17-.25 3.41-2.57 6.76-8 6.62a6.75 6.75 0 0 1 -6.56-6.69c.02-3.96 2.43-7.03 7-7.1z" fill="#e83a2a"/><path d="m148.85 141.55c3.36-.05 6.13 2.12 5.88 5.57-.19 2.65-2 5.26-6.2 5.15a5.25 5.25 0 0 1 -5.1-5.2 5.16 5.16 0 0 1  5.42-5.52z" fill="#e83a2a"/><path d="m127.12 175.68c5-.08 9.2 3.19 8.83 8.37-.29 4-3 7.89-9.31 7.73a7.88 7.88 0 0 1 -7.64-7.78c0-4.65 2.78-8.23 8.12-8.32z" fill="#e83a2a"/><path d="m127.66 157.93c4.32-.07 7.88 2.73 7.56 7.17-.25 3.41-2.57 6.76-8 6.62a6.75 6.75 0 0 1 -6.56-6.69c.03-3.96 2.43-7.03 7-7.1z" fill="#e83a2a"/><path d="m127.85 141.55c3.36-.05 6.13 2.12 5.88 5.57-.19 2.65-2 5.26-6.2 5.15a5.25 5.25 0 0 1 -5.1-5.2 5.16 5.16 0 0 1  5.42-5.52z" fill="#e83a2a"/><path d="m172.32 142.55c3.36-.05 6.13 2.12 5.88 5.57-.19 2.65-2 5.26-6.2 5.15a5.25 5.25 0 0 1 -5.1-5.2 5.16 5.16 0 0 1  5.42-5.52z" fill="#e83a2a"/><path d="m194.21 142.55c3.36-.05 6.13 2.12 5.88 5.57-.19 2.65-2 5.26-6.2 5.15a5.25 5.25 0 0 1 -5.1-5.2 5.16 5.16 0 0 1  5.42-5.52z" fill="#e83a2a"/></svg>