<svg viewBox="0 0 24 24" xml:space="preserve" xmlns="http://www.w3.org/2000/svg"><path d="M23 9h-7l1-8c0-.6-.4-1-1-1h-4c-.6 0-1 .4-1 1l-1 8c-.2 1.1-.9 2-2 2v-1c0-.6-.4-1-1-1H1c-.6 0-1 .4-1 1v13c0 .6.4 1 1 1h6c.6 0 1-.4 1-1v-1c1.1 0 2 .9 2 2h12c.6 0 1-.4 1-1l1-13c0-.6-.4-1-1-1zM6 22H2V11h4v11zm15.8-9H17v1h4.7l-.2 2H17v1h4.5l-.2 2H17v1h4.2l-.2 2h-9.6c-.7-1.2-2-2-3.4-2v-7c2.2 0 3.6-1.8 4-4l1-7h2l-1.2 9H22l-.2 2z" fill="#ab1515" class="fill-000000"></path><circle cx="4" cy="20" r="1" fill="#ab1515" class="fill-000000"></circle></svg>