<svg viewBox="0 0 50 50" xmlns="http://www.w3.org/2000/svg"><path d="M48 26v3a2.002 2.002 0 0 1-2 2H4a2.002 2.002 0 0 1-2-2v-3a2.002 2.002 0 0 1 2-2h42a2.002 2.002 0 0 1 2 2ZM4.346 33h41.308l-1.453 12.35a3.002 3.002 0 0 1-2.98 2.65H8.779a3.002 3.002 0 0 1-2.98-2.648ZM34 43a1 1 0 0 0 2 0v-7a1 1 0 0 0-2 0Zm-10 0a1 1 0 0 0 2 0v-7a1 1 0 0 0-2 0Zm-10 0a1 1 0 0 0 2 0v-7a1 1 0 0 0-2 0ZM8.781 14.055A5.995 5.995 0 0 1 6 9V6a1 1 0 0 1 1-1h1a6.007 6.007 0 0 1 6 6v2.059A9.01 9.01 0 0 1 22 22H4a9.006 9.006 0 0 1 4.781-7.945ZM14 15a1 1 0 0 0 0 2 2.997 2.997 0 0 1 2.904 2.25 1 1 0 0 0 1.938-.5A4.998 4.998 0 0 0 14 15Zm4-2.786V9a7.008 7.008 0 0 1 7-7 7.008 7.008 0 0 1 7 7v13h-8c0-.338-.02-.67-.05-1H27a1 1 0 0 0 0-2h-3.426A11.036 11.036 0 0 0 18 12.214ZM22 10a1 1 0 0 0 1 1h4a1 1 0 0 0 0-2h-4a1 1 0 0 0-1 1Zm2 5a1 1 0 0 0 1 1h2a1 1 0 0 0 0-2h-2a1 1 0 0 0-1 1Zm22 7H34v-8h9a3.003 3.003 0 0 1 3 3Zm-4-5a1 1 0 0 0-1-1h-4a1 1 0 0 0 0 2h4a1 1 0 0 0 1-1Z" fill="#b32424" class="fill-000000"></path></svg>