<svg xmlns="http://www.w3.org/2000/svg"  viewBox="0 0 91 91" width="91px" height="91px"><rect width="84.39" height="14.773" x="3.023" y="9.75" fill="#D9ECF5"/><path fill="#5B7C92" d="M87.413,27.037H3.023c-1.388,0-2.513-1.125-2.513-2.514V9.75c0-1.387,1.125-2.512,2.513-2.512h84.39 c1.388,0,2.513,1.125,2.513,2.512v14.773C89.926,25.912,88.801,27.037,87.413,27.037z M5.536,22.012H84.9v-9.748H5.536V22.012z"/><rect width="84.39" height="14.772" x="3.023" y="38.667" fill="#D9ECF5"/><path fill="#5B7C92" d="M87.413,55.952H3.023c-1.388,0-2.513-1.125-2.513-2.513V38.667c0-1.388,1.125-2.513,2.513-2.513h84.39 c1.388,0,2.513,1.125,2.513,2.513v14.772C89.926,54.827,88.801,55.952,87.413,55.952z M5.536,50.927H84.9V41.18H5.536V50.927z"/><g><rect width="84.39" height="14.773" x="3.023" y="67.584" fill="#D9ECF5"/><path fill="#5B7C92" d="M87.413,84.869H3.023c-1.388,0-2.513-1.125-2.513-2.512V67.584c0-1.387,1.125-2.512,2.513-2.512h84.39 c1.388,0,2.513,1.125,2.513,2.512v14.773C89.926,83.744,88.801,84.869,87.413,84.869z M5.536,79.844H84.9v-9.746H5.536V79.844z"/></g></svg>