<svg id="SvgjsSvg1013" width="288" height="288" xmlns="http://www.w3.org/2000/svg" version="1.1" xmlns:xlink="http://www.w3.org/1999/xlink" xmlns:svgjs="http://svgjs.com/svgjs"><g id="SvgjsG1023" transform="matrix(0.699999988079071,0,0,0.699999988079071,43.20000076293945,43.20000076293945)" fill="#d85b53"><circle id="SvgjsCircle1024" r="144" cx="144" cy="144"></circle><rect id="SvgjsRect1025" width="144" height="144" x="144" y="144" rx="0" ry="0"></rect></g><defs id="SvgjsDefs1014"></defs><g id="SvgjsG1015" transform="matrix(0.4652000069618225,0,0,0.4652000069618225,77.01271057128906,77.01271057128906)"><svg xmlns="http://www.w3.org/2000/svg" xmlns:svgjs="http://svgjs.com/svgjs" xmlns:xlink="http://www.w3.org/1999/xlink" width="288" height="288"><svg xmlns="http://www.w3.org/2000/svg" width="288" height="288" viewBox="0 0 16.933 16.933"><path style="line-height:normal;font-variant-ligatures:normal;font-variant-position:normal;font-variant-caps:normal;font-variant-numeric:normal;font-variant-alternates:normal;font-feature-settings:normal;text-indent:0;text-align:start;text-decoration-line:none;text-decoration-style:solid;text-decoration-color:#000;text-transform:none;text-orientation:mixed;white-space:normal;shape-padding:0;isolation:auto;mix-blend-mode:normal;solid-color:#000;solid-opacity:1" d="m 14.539322,15.924233 c -0.02798,0.03335 -0.06486,0.0609 -0.109988,0.07783 -0.629283,0.233725 -1.299251,0.273456 -1.929717,0.136296 -0.630466,-0.13716 -1.222009,-0.451546 -1.697318,-0.925578 C 9.9895208,14.400004 9.6545416,13.258895 9.8504122,12.17661 9.3472606,11.557558 8.4891299,10.652862 7.6086357,9.7791706 6.7349458,8.8986777 5.8302487,8.0405468 5.2111968,7.5373959 4.1289138,7.7332668 2.9878048,7.3982868 2.1750258,6.5855088 1.7009917,6.1102028 1.3866077,5.5186571 1.2494488,4.8881911 c -0.13716,-0.630466 -0.09743,-1.300436 0.136296,-1.929717 0.01694,-0.04513 0.04448,-0.08201 0.07783,-0.10999 0.10014,-0.08385 0.256134,-0.08656 0.358099,0.01608 l 1.7616277,1.7601712 1.3457959,-0.1487208 1.76e-5,-0.0014 0.0014,-1.81e-5 L 5.079231,3.1288048 3.3190386,1.3671983 C 3.2164005,1.2652333 3.2191186,1.1092413 3.3029586,1.0090992 3.330941,0.97574709 3.3677515,0.94812609 3.4129488,0.93126909 4.0422291,0.6975458 4.7121983,0.65781457 5.3426657,0.79497317 5.9731315,0.93213439 6.5646771,1.2465167 7.0399821,1.7205518 7.85276,2.5333296 8.1877409,3.6744392 7.9918699,4.7567216 c 0.503161,0.6190418 1.3612939,1.5237376 2.2417791,2.3974345 0.873698,0.8804862 1.77839,1.7386225 2.39744,2.2417749 1.082283,-0.1958707 2.223393,0.1391105 3.036171,0.951887 0.474034,0.475307 0.788419,1.066853 0.925578,1.697319 0.137159,0.630466 0.09743,1.300434 -0.136297,1.929716 -0.0169,0.04517 -0.04445,0.08204 -0.07783,0.109989 -0.100141,0.08385 -0.256136,0.08656 -0.358099,-0.01608 l -1.761613,-1.760234 -1.345796,0.148721 v 0.0016 h -0.0016 l -0.148666,1.345797 1.76017,1.761627 c 0.102637,0.101966 0.09993,0.257959 0.01608,0.3581 z M 13.841028,15.63008 12.298636,14.089894 c -0.05708,-0.0569 -0.08532,-0.136594 -0.07637,-0.216688 l 0.187461,-1.684171 c 0.0067,-0.06172 0.03452,-0.116375 0.076,-0.157856 0.04148,-0.04148 0.09614,-0.06928 0.157855,-0.076 l 1.684162,-0.187453 c 0.0801,-0.0089 0.159793,0.01929 0.216689,0.07637 l 1.540157,1.542421 c 0.06997,-0.38182 0.07186,-0.855845 -0.0091,-1.228137 C 15.959485,11.625154 15.693578,11.123474 15.292055,10.720866 14.563924,9.9927363 13.5504,9.7348103 12.614714,9.9377993 c -0.07808,0.01762 -0.15981,-0.0011 -0.222529,-0.050802 C 11.734612,9.3577062 10.776408,8.4555907 9.856604,7.5312066 8.9322469,6.611375 8.0301028,5.6531997 7.5008208,4.995643 7.4511013,4.9329127 7.4324398,4.8511631 7.4500296,4.7731153 7.6530165,3.8374284 7.3950884,2.8239044 6.6669601,2.0957747 6.2643523,1.6942516 5.7626721,1.4283448 5.229447,1.3123409 4.8571554,1.2313509 4.3831302,1.2332409 4.0013121,1.3032409 L 5.543732,2.843398 c 0.05708,0.05689 0.085321,0.1365861 0.07637,0.2166881 L 5.4326472,4.7442487 c -0.0067,0.06172 -0.03452,0.1163763 -0.076001,0.157858 -0.041479,0.041479 -0.09613,0.069279 -0.1578574,0.076 l -1.684164,0.1874234 c -0.0801,0.0089 -0.159794,-0.01929 -0.216687,-0.07637 L 1.7577519,3.546768 c -0.06997,0.3818171 -0.07186,0.8558421 0.0091,1.2281341 0.116004,0.5332249 0.381911,1.034905 0.783434,1.4375117 0.728131,0.728131 1.7416539,0.986057 2.677342,0.78307 0.07808,-0.01762 0.1598119,0.0011 0.222532,0.05079 0.6575603,0.5292756 1.6150299,1.432128 2.5348327,2.356513 0.9243856,0.9198032 1.8272365,1.8772722 2.3565124,2.5348322 0.04972,0.06272 0.06841,0.144454 0.05079,0.222533 -0.202987,0.935687 0.05494,1.94921 0.783069,2.677342 0.402608,0.401522 0.904287,0.667429 1.437513,0.783433 0.372292,0.08099 0.846316,0.0791 1.228135,0.0091 z" class="color000 svgShape" color="#000" enable-background="accumulate" font-family="sans-serif" font-weight="400" overflow="visible" fill="#7d8c94"></path><path style="line-height:normal;font-variant-ligatures:normal;font-variant-position:normal;font-variant-caps:normal;font-variant-numeric:normal;font-variant-alternates:normal;font-feature-settings:normal;text-indent:0;text-align:start;text-decoration-line:none;text-decoration-style:solid;text-decoration-color:#000;text-transform:none;text-orientation:mixed;white-space:normal;shape-padding:0;isolation:auto;mix-blend-mode:normal;solid-color:#000;solid-opacity:1" d="M4.6004192 9.8952319L4.9746886 10.269501 5.348958 9.895232c0 0 .1509036-.1442144.3646019-.2154467.2136982-.071232.4647755-.076603.7582063.2168276.2843716.2843711.2880602.5445081.2168277.7582061-.071232.213698-.2168277.363221-.2168277.363221l-.3742693.374269.3742693.37427.3742694-.37427c0 0 .2280308-.222812.3438859-.570381C7.3057772 10.47436 7.31046 9.9867683 6.8460356 9.5223436 6.3785448 9.0548528 5.8926376 9.0612209 5.5450696 9.1770766 5.1975017 9.2929323 4.9746886 9.5209625 4.9746886 9.5209625zM12.821917 2.0493849a.26460981.26460981 0 00.0097.3632209L13.954426 3.535414A.26460981.26460981 0 0014.353521 3.506412L15.47633 2.0107149A.26460981.26460981 0 0015.452851 1.6640673L14.704312.91552849A.26460981.26460981 0 0014.357665.89204987L12.860587 2.0134774a.26460981.26460981 0 00-.03866.035907zm.599383.2043979l1.070328-.8024006.423988.4239879-.8024 1.0703278z" class="color000 svgShape" color="#000" enable-background="accumulate" font-family="sans-serif" font-weight="400" overflow="visible" fill="#7d8c94"></path><path style="line-height:normal;font-variant-ligatures:normal;font-variant-position:normal;font-variant-caps:normal;font-variant-numeric:normal;font-variant-alternates:normal;font-feature-settings:normal;text-indent:0;text-align:start;text-decoration-line:none;text-decoration-style:solid;text-decoration-color:#000;text-transform:none;text-orientation:mixed;white-space:normal;shape-padding:0;isolation:auto;mix-blend-mode:normal;solid-color:#000;solid-opacity:1" d="M6.4717662 9.5209625L6.8460356 9.8952319 7.4537055 9.287562 7.0794361 8.9132926zM9.3664843 6.6262444L9.7407537 7.0005138 13.767948 2.9733193 13.393679 2.5990499zM.67128087 12.702943c0 0-.22803066.222812-.34388588.570381-.11585605.347568-.12115589.834542.34388589 1.299585l1.12280822 1.122808c.4643114.464311.9520168.459742 1.2995851.343886.3475682-.115856.5703809-.343886.5703809-.343886L6.283941 13.075831c0 0 .2280379-.222805.3438861-.570381C6.7436827 12.157882 6.7503794 11.672304 6.283941 11.205865L5.1611328 10.083057C4.6946287 9.6165531 4.2091157 9.6233157 3.8615479 9.7391712 3.5139799 9.8550268 3.2911667 10.083057 3.2911667 10.083057zm.37426943.374269l2.6198859-2.619886c0 0 .1495248-.145593.3632208-.216827.213698-.07123.4736431-.06774.7582064.216827l1.1228082 1.122808c.2862366.286237.2880602.544509.2168276.758207-.071232.213698-.2168277.363221-.2168277.363221l-2.6198858 2.619885c0 0-.1495243.145593-.3632209.216828-.2136984.07123-.4741627.06722-.7582063-.216827L1.0455503 14.198639C.76146055 13.91455.7574898 13.654131.82872261 13.440433.89995542 13.226735 1.0455503 13.077212 1.0455503 13.077212z" class="color000 svgShape" color="#000" enable-background="accumulate" font-family="sans-serif" font-weight="400" overflow="visible" fill="#7d8c94"></path></svg></svg></g></svg>