<svg xmlns="http://www.w3.org/2000/svg" enable-background="new 0 0 512 512" viewBox="0 0 512 512"><path d="M377.027 335.507v12.91h-17.479c-18.861 0-34.214 15.354-34.214 34.214v12.911h-4.623v-12.911c0-18.86-15.354-34.214-34.214-34.214h-17.533v-12.91c0-13.017 10.573-23.589 23.589-23.589h60.939C366.454 311.917 377.027 322.49 377.027 335.507zM243.089 335.507v12.91h-17.532c-18.861 0-34.215 15.354-34.215 34.214v12.911h-4.622v-12.911c0-18.86-15.354-34.214-34.214-34.214h-17.533v-12.91c0-13.017 10.573-23.589 23.589-23.589H219.5C232.517 311.917 243.089 322.49 243.089 335.507z"/><path d="M176.094 382.631v12.911h-17.533c-18.86 0-34.214 15.301-34.214 34.162v34.214h-4.622v-34.214c0-18.861-15.354-34.162-34.215-34.162H67.978v-12.911c0-13.016 10.573-23.589 23.589-23.589h60.938C165.522 359.042 176.094 369.615 176.094 382.631zM444.021 382.631v12.911h-17.479c-18.86 0-34.215 15.301-34.215 34.162v34.214h-4.675v-34.214c0-18.861-15.302-34.162-34.162-34.162h-17.532v-12.911c0-13.016 10.573-23.589 23.589-23.589h60.938C433.449 359.042 444.021 369.615 444.021 382.631zM310.084 382.631v12.911h-17.533c-18.86 0-34.214 15.301-34.214 34.162v34.214h-4.675v-34.214c0-18.861-15.302-34.162-34.163-34.162h-17.532v-12.911c0-13.016 10.573-23.589 23.589-23.589h60.938C299.459 359.042 310.084 369.615 310.084 382.631z"/><path d="M109.1 429.703v75.974c0 2.975-2.391 5.313-5.313 5.313H6.296c-2.922 0-5.313-2.338-5.313-5.313v-75.974c0-12.963 10.573-23.536 23.589-23.536H85.51C98.527 406.167 109.1 416.74 109.1 429.703zM511.017 429.703v75.974c0 2.975-2.337 5.313-5.313 5.313h-97.438c-2.922 0-5.313-2.338-5.313-5.313v-75.974c0-12.963 10.573-23.536 23.589-23.536h60.938C500.444 406.167 511.017 416.74 511.017 429.703zM243.037 429.703v75.974c0 2.975-2.338 5.313-5.313 5.313h-97.438c-2.922 0-5.313-2.338-5.313-5.313v-75.974c0-12.963 10.573-23.536 23.589-23.536H219.5C232.464 406.167 243.037 416.74 243.037 429.703zM377.027 429.703v75.974c0 2.975-2.338 5.313-5.313 5.313h-97.438c-2.922 0-5.313-2.338-5.313-5.313v-75.974c0-12.963 10.573-23.536 23.589-23.536h60.939C366.454 406.167 377.027 416.74 377.027 429.703zM450.981 1.01H61.019c-14.61 0-26.564 11.901-26.564 26.564v222.927c0 14.664 11.954 26.564 26.564 26.564h389.963c14.664 0 26.564-11.901 26.564-26.564V27.574C477.546 12.91 465.645 1.01 450.981 1.01zM256 209.698c-38.944 0-70.661-31.718-70.661-70.661 0-38.997 31.718-70.714 70.661-70.714 38.996 0 70.714 31.718 70.714 70.714C326.714 177.98 294.996 209.698 256 209.698z"/><path d="M288.727,130.643l-39.581-26.937c-3.134-2.071-7.119-2.284-10.413-0.531c-3.347,1.753-5.419,5.153-5.419,8.925v53.872
			c0,3.719,2.072,7.172,5.419,8.926c1.488,0.796,3.081,1.169,4.728,1.169c1.966,0,3.985-0.585,5.685-1.754l39.581-26.936
			c2.763-1.859,4.41-4.994,4.41-8.341C293.137,135.69,291.49,132.555,288.727,130.643z"/></svg>