<svg version="1.0" xmlns="http://www.w3.org/2000/svg" viewBox="0 0 566.434 566.43"><path d="M408.271 114.102c23.493.143 62.707 6.81 88.493 17.484 11.095 5.588 20.088 14.812 22.208 24.571l11.868 90.15.439 129.914-20.284.387v18.781c1.077 24.322-35.968 25.28-36.86-.236l-.355-18.867H342.762l-.356 18.867c-.89 25.516-37.935 24.558-36.858.237v-18.782l-20.284-.386.438-129.914 11.868-90.15c2.12-9.76 11.113-18.984 22.209-24.572 25.606-11.087 59.935-17.228 88.492-17.484z" fill="#c91616" fill-rule="evenodd" stroke="#c91616" stroke-width="1.41663778" stroke-linecap="butt" stroke-linejoin="miter" stroke-miterlimit="4" stroke-opacity="1" class="fill-000000 stroke-000000"></path><path d="M434.646 341.114a22.373 23.182 0 1 1-44.746 0 22.373 23.182 0 1 1 44.746 0z" transform="matrix(.7334 0 0 .7078 20.807 77.618)" fill="#ffffff" fill-opacity="1" stroke="#c91616" stroke-width="2" stroke-miterlimit="4" stroke-dasharray="none" stroke-dashoffset="0" stroke-opacity="1" class="fill-ffffff stroke-000000"></path><path d="M434.646 341.114a22.373 23.182 0 1 1-44.746 0 22.373 23.182 0 1 1 44.746 0z" transform="matrix(.7334 0 0 .7078 189.656 77.618)" fill="#ffffff" fill-opacity="1" stroke="#c91616" stroke-width="2" stroke-miterlimit="4" stroke-dasharray="none" stroke-dashoffset="0" stroke-opacity="1" class="fill-ffffff stroke-000000"></path><rect height="12.286" rx="5.67" ry="4.253" width="111.516" x="352.619" y="139.619" fill="#ffffff" fill-opacity="1" stroke="#c91616" stroke-width="1.41663778" stroke-miterlimit="4" stroke-dasharray="none" stroke-dashoffset="0" stroke-opacity="1" class="fill-ffffff stroke-000000"></rect><path d="M407.744 169.448h81.039c3.14 0 7.56 4.495 7.56 6.851 4.284 24.587 7.342 48.56 10.396 72.533.708 7.317-3.002 9.214-12.522 8.742l-172.548-.06c-9.52.473-13.23-1.424-12.522-8.742 3.054-23.972 6.111-47.945 10.395-72.532 0-2.356 4.42-6.852 7.56-6.852h81.04" fill="#ffffff" fill-opacity="1" stroke="#c91616" stroke-width="1.41663778" stroke-miterlimit="4" stroke-dashoffset="0" stroke-opacity="1" class="fill-ffffff stroke-000000"></path><path d="M173.427 202.81c6.043.921 7.225 3.338 7.343 7.547V222.8l27.535.408c10.408-.368 19.353 2.999 24.884 15.093l19.988 49.971c14.55 4.012 20.877 14.582 21.213 23.252v65.473h-19.173v22.028c.93 20.996-33.496 21.823-34.266-.204l-.408-21.62H96.08l-.408 21.62c-.77 22.027-35.196 21.2-34.266.203v-22.028H42.232v-65.472c.336-8.67 6.663-19.24 21.213-23.252l19.988-49.97c5.53-12.095 14.476-15.462 24.884-15.094l27.535-.408v-12.442c.118-4.21 1.3-6.626 7.342-7.547h30.233z" fill="#c91616" fill-rule="evenodd" stroke="#c91616" stroke-width="1.2229712" stroke-linecap="butt" stroke-linejoin="miter" stroke-miterlimit="4" stroke-opacity="1" class="fill-000000 stroke-000000"></path><path d="m83.518 287.249 149.754.204-14.387-38.772c-3.514-7.812-7.025-7.98-15.288-7.788l-90.284-.288c-7.445-.302-13.042.312-15.576 8.941L83.518 287.25z" fill="#ffffff" fill-opacity="1" fill-rule="evenodd" stroke="#c91616" stroke-width="1.2229712" stroke-linecap="butt" stroke-linejoin="miter" stroke-miterlimit="4" stroke-dasharray="none" stroke-opacity="1" class="fill-ffffff stroke-000000"></path><path d="M438.624 341.114a26.35 26.518 0 1 1-52.702 0 26.35 26.518 0 1 1 52.702 0z" transform="matrix(.61528 0 0 .61141 -15.322 114.485)" fill="#ffffff" fill-opacity="1" stroke="#c91616" stroke-width="2" stroke-miterlimit="4" stroke-dasharray="none" stroke-dashoffset="0" stroke-opacity="1" class="fill-ffffff stroke-000000"></path><path d="M438.624 341.114a26.35 26.518 0 1 1-52.702 0 26.35 26.518 0 1 1 52.702 0z" transform="matrix(.61528 0 0 .61141 -174.5 114.485)" fill="#ffffff" fill-opacity="1" stroke="#c91616" stroke-width="2" stroke-miterlimit="4" stroke-dasharray="none" stroke-dashoffset="0" stroke-opacity="1" class="fill-ffffff stroke-000000"></path></svg>